<?xml version="1.0" encoding="UTF-8" standalone="no"?>
<svg width="4588.9507" height="4865.3882" viewBox="0 0 4588.9507 4865.3882" version="1.1" xml:space="preserve" style="clip-rule:evenodd;fill-rule:evenodd;stroke-linejoin:round;stroke-miterlimit:2" id="svg11" sodipodi:docname="420530f009543432e48d9ceca8cfd7dd.svg" xmlns:inkscape="http://www.inkscape.org/namespaces/inkscape" xmlns:sodipodi="http://sodipodi.sourceforge.net/DTD/sodipodi-0.dtd" xmlns="http://www.w3.org/2000/svg" xmlns:svg="http://www.w3.org/2000/svg">
  <sodipodi:namedview id="namedview13" pagecolor="#ffffff" bordercolor="#666666" borderopacity="1.0" inkscape:pageshadow="2" inkscape:pageopacity="0.0" inkscape:pagecheckerboard="0" />
  <path d="m 1366.3661,2069.843 1.085,1.61 0.796,1.064 0.302,0.429 0.459,0.587 0.94,1.255 0.712,0.857 0.502,0.642 0.745,0.859 0.726,0.875 0.552,0.599 0.73,0.842 1.085,1.132 0.505,0.548 0.374,0.368 0.92,0.959 1.413,1.332 0.352,0.345 0.248,0.221 0.997,0.94 1.607,1.37 0.354,0.315 0.234,0.187 0.932,0.795 1.625,1.252 0.521,0.417 0.313,0.226 0.778,0.6 1.495,1.038 0.822,0.593 0.446,0.288 0.578,0.402 1.239,0.774 1.236,0.799 0.594,0.344 0.367,0.229 0.888,0.496 1.733,1.001 0.731,0.375 0.172,0.097 0.477,0.237 2.276,1.168 0.838,0.378 0.015,0.01 0.047,0.021 c 7.289,3.425 14.965,5.712 22.769,6.884 l 0.113,0.02 0.708,0.09 2.586,0.345 0.416,0.036 0.26,0.033 1.657,0.13 1.657,0.141 0.261,0.01 0.417,0.032 2.608,0.08 0.712,0.027 h 0.115 c 7.892,0.107 15.837,-0.907 23.586,-3.089 l 0.05,-0.013 0.016,-0.01 0.888,-0.237 2.436,-0.783 0.509,-0.156 0.186,-0.067 0.782,-0.251 1.872,-0.706 0.958,-0.346 0.399,-0.166 0.641,-0.242 1.35,-0.588 1.349,-0.562 0.636,-0.302 0.486,-0.212 0.908,-0.451 1.643,-0.782 0.866,-0.465 0.346,-0.172 0.581,-0.326 1.807,-0.972 1.049,-0.632 0.262,-0.147 0.4,-0.253 1.809,-1.09 1.136,-0.766 0.281,-0.177 0.404,-0.284 1.61,-1.084 1.064,-0.797 0.429,-0.301 0.587,-0.46 1.255,-0.94 0.857,-0.711 0.642,-0.502 0.859,-0.745 0.875,-0.727 0.599,-0.551 0.842,-0.73 1.132,-1.086 0.548,-0.504 0.368,-0.374 0.959,-0.921 1.332,-1.412 0.345,-0.352 1786.48,-1913.43 c 0,0 995.641,0 995.641,0 0,0 -1675.33,1794.38 -1675.33,1794.38 L 22.406123,4725.185 c -31.3880003,33.618 -29.5770003,86.394 4.041,117.782 17.202,16.061 39.421,23.429 61.227,22.269 l 4.127,0.152 H 1315.4611 c 23.093,0 45.151,-9.583 60.911,-26.463 l 1789.82,-1917.01 1183.77,1776.8 c 0,0 -828.603,0 -1031.87,0 -100.081,-150.218 -469.656,-704.939 -469.656,-704.939 -25.501,-38.276 -77.28,-48.648 -115.556,-23.147 -38.276,25.501 -48.648,77.279 -23.147,115.555 l 494.393,742.068 c 15.453,23.196 41.48,37.129 69.351,37.129 h 1232.14 c 30.729,0 58.964,-16.91 73.467,-44 14.504,-27.091 12.922,-59.964 -4.115,-85.537 l -1328.46,-1993.98 -0.284,-0.403 -1.084,-1.61 -0.797,-1.064 -0.302,-0.429 -0.459,-0.587 -0.94,-1.256 -0.712,-0.857 -0.502,-0.641 -0.745,-0.859 -0.726,-0.875 -0.552,-0.6 -0.73,-0.841 -1.085,-1.132 -0.505,-0.549 -0.374,-0.367 -0.92,-0.96 -1.413,-1.331 -0.351,-0.346 -0.249,-0.22 -0.997,-0.94 -1.607,-1.371 -0.354,-0.314 -0.234,-0.187 -0.932,-0.795 -1.625,-1.253 -0.52,-0.416 -0.314,-0.226 -0.778,-0.6 -1.494,-1.038 -0.823,-0.593 -0.446,-0.288 -0.578,-0.402 -1.239,-0.774 -1.236,-0.8 -0.594,-0.343 -0.367,-0.229 -0.888,-0.496 -1.732,-1.002 -0.732,-0.375 -0.172,-0.096 -0.477,-0.237 -2.276,-1.168 -0.838,-0.379 -0.015,-0.01 -0.047,-0.021 c -7.289,-3.425 -14.965,-5.712 -22.769,-6.885 l -0.113,-0.019 -0.708,-0.09 -2.585,-0.346 -0.417,-0.035 -0.26,-0.033 -1.657,-0.13 -1.657,-0.141 -0.261,-0.01 -0.417,-0.033 -2.608,-0.08 -0.712,-0.026 -0.115,0 c -7.891,-0.108 -15.836,0.906 -23.586,3.089 l -0.05,0.013 h -0.016 l -0.888,0.237 -2.436,0.782 -0.509,0.157 -0.185,0.067 -0.783,0.251 -1.872,0.706 -0.957,0.345 -0.399,0.166 -0.642,0.243 -1.35,0.588 -1.349,0.562 -0.636,0.302 -0.486,0.212 -0.908,0.451 -1.643,0.781 -0.866,0.466 -0.346,0.171 -0.581,0.327 -1.807,0.971 -1.049,0.633 -0.261,0.147 -0.401,0.252 -1.809,1.091 -1.136,0.765 -0.281,0.177 -0.403,0.284 -1.611,1.084 -1.064,0.797 -0.428,0.302 -0.588,0.459 -1.255,0.94 -0.857,0.712 -0.642,0.502 -0.859,0.745 -0.874,0.726 -0.6,0.552 -0.842,0.73 -1.132,1.085 -0.548,0.505 -0.368,0.374 -0.959,0.92 -1.332,1.413 -0.345,0.351 -1836.98,1967.52 c 0,0 -995.64098,0 -995.64098,0 C 706.61612,4245.66 2009.4651,2850.23 2009.4651,2850.23 L 4539.6951,140.2 c 31.388,-33.618 29.577,-86.395 -4.041,-117.782 -17.202,-16.061 -39.421,-23.43 -61.227,-22.269 l -4.127,-0.153 h -1223.66 c -23.093,0 -45.151,9.583 -60.911,26.463 L 1446.4191,1889.377 298.68912,166.667 c 0,0 1031.86998,0 1031.86998,0 0,0 489.032,734.021 489.032,734.021 25.501,38.276 77.279,48.648 115.555,23.147 38.276,-25.501 48.648,-77.28 23.147,-115.556 L 1444.5251,37.129 C 1429.0711,13.934 1403.0451,0 1375.1741,0 H 143.03412 c -30.728,0 -58.962997,16.911 -73.466997,44.001 -14.503,27.09 -12.921,59.964 4.116,85.537 l 1292.429977,1939.89 0.283,0.404 z" style="fill:url(#_Linear1)" id="path2" />
  <defs id="defs9">
    <linearGradient id="_Linear1" x1="0" y1="0" x2="1" y2="0" gradientUnits="userSpaceOnUse" gradientTransform="matrix(4326.08,4602.96,-4602.96,4326.08,262.86312,262.437)">
      <stop offset="0" style="stop-color:#ff5858;stop-opacity:1" id="stop4" />
      <stop offset="1" style="stop-color:#9b9595;stop-opacity:1" id="stop6" />
    </linearGradient>
  </defs>
</svg>